<?xml version="1.0" encoding="utf-8"?>
<!-- Generator: Adobe Illustrator 16.0.0, SVG Export Plug-In . SVG Version: 6.00 Build 0)  -->
<!DOCTYPE svg PUBLIC "-//W3C//DTD SVG 1.1//EN" "http://www.w3.org/Graphics/SVG/1.1/DTD/svg11.dtd">
<svg version="1.1" id="Layer_1" xmlns="http://www.w3.org/2000/svg" xmlns:xlink="http://www.w3.org/1999/xlink" x="0px" y="0px"
	 width="30px" height="30px" viewBox="0 0 30 30" enable-background="new 0 0 30 30" xml:space="preserve">
<rect width="30" height="30"/>
<defs>
	<filter id="Adobe_OpacityMaskFilter" filterUnits="userSpaceOnUse" x="18.021" y="2.622" width="12.19" height="12.191">
		<feColorMatrix  type="matrix" values="1 0 0 0 0  0 1 0 0 0  0 0 1 0 0  0 0 0 1 0"/>
	</filter>
</defs>
<mask maskUnits="userSpaceOnUse" x="18.021" y="2.622" width="12.19" height="12.191" id="SVGID_1_">
	<g filter="url(#Adobe_OpacityMaskFilter)">
		<path fill="#F5F5F5" d="M29.962,26.252c0,2.068-1.676,3.742-3.739,3.742H3.774c-2.066,0-3.741-1.674-3.741-3.742V3.807
			c0-2.065,1.675-3.741,3.741-3.741h22.449c2.063,0,3.739,1.676,3.739,3.741V26.252z"/>
	</g>
</mask>
<g mask="url(#SVGID_1_)">
	<g>
		<polygon fill="#FFFFFF" points="22.697,14.813 22.697,10.137 18.021,10.137 18.021,7.298 22.697,7.298 22.697,2.622 25.535,2.622 
			25.535,7.298 30.212,7.298 30.212,10.137 25.535,10.137 25.535,14.813 		"/>
	</g>
</g>
<g>
	
		<linearGradient id="SVGID_2_" gradientUnits="userSpaceOnUse" x1="297.6934" y1="-352.689" x2="297.6934" y2="-387.3268" gradientTransform="matrix(1 0 0 -1 -291 -350)">
		<stop  offset="0" style="stop-color:#FFFFFF"/>
		<stop  offset="1" style="stop-color:#F9DAD6"/>
	</linearGradient>
	<path fill="url(#SVGID_2_)" d="M6.454,37.045c-6.436,0-11.107-2.723-11.107-6.475c0-3.959,4.123-8.195,10.261-8.195
		c0.324,0,1.138-0.009,1.236-0.01c-0.595-0.619-1.106-1.321-1.106-2.398c0-0.546,0.128-1.115,0.38-1.699
		c-0.189,0.008-0.38,0.015-0.575,0.015c-4.653,0-7.902-3.253-7.902-7.912c0-4.376,4.523-8.215,9.68-8.215h10.72l-2.743,2.877h-1.961
		c1.465,1.185,2.319,3.172,2.319,5.481c0,2.094-1.069,4.034-3.091,5.614c-1.685,1.315-1.939,1.813-1.939,2.837
		c0,0.773,1.8,2.112,2.666,2.756l0.219,0.163c3.474,2.606,4.034,4.278,4.034,7.271C17.545,33.033,13.396,37.045,6.454,37.045z
		 M6.839,24.073c-3.885,0-7.167,2.452-7.167,5.356c0,3.038,2.969,5.42,6.76,5.42c4.885,0,7.467-1.82,7.467-5.263
		c0-0.341-0.042-0.688-0.123-1.036c-0.358-1.398-1.632-2.261-3.396-3.453c-0.304-0.205-0.619-0.42-0.943-0.646
		c-0.752-0.231-1.614-0.37-2.498-0.379H6.839z M5.673,4.302c-1.003,0-1.893,0.409-2.572,1.183C2.118,6.607,1.698,8.354,1.95,10.273
		c0.436,3.314,2.826,5.877,5.559,5.959l0.13,0.002c1.023,0,1.887-0.368,2.499-1.066c0.861-0.98,1.198-2.568,0.948-4.469
		c-0.469-3.57-2.748-6.319-5.3-6.395L5.673,4.302z"/>
</g>
</svg>
