<?xml version="1.0" encoding="utf-8"?>
<!-- Generator: Adobe Illustrator 16.0.0, SVG Export Plug-In . SVG Version: 6.00 Build 0)  -->
<!DOCTYPE svg PUBLIC "-//W3C//DTD SVG 1.1//EN" "http://www.w3.org/Graphics/SVG/1.1/DTD/svg11.dtd">
<svg version="1.1" id="Layer_1" xmlns="http://www.w3.org/2000/svg" xmlns:xlink="http://www.w3.org/1999/xlink" x="0px" y="0px"
	 width="30px" height="30px" viewBox="0 0 30 30" enable-background="new 0 0 30 30" xml:space="preserve">
<rect width="30" height="30"/>
<g>
	<g>
		<path fill="#FFFFFF" d="M15.014,11.31c0.582,0,1.121,0.176,1.57,0.477h0.927c-0.628-0.66-1.515-1.072-2.497-1.072
			s-1.869,0.412-2.496,1.072h0.926C13.894,11.485,14.433,11.31,15.014,11.31z"/>
		<path fill="#FFFFFF" d="M11.568,14.157c0,1.899,1.543,3.44,3.445,3.44c1.902,0,3.445-1.541,3.445-3.44
			c0-0.623-0.166-1.206-0.455-1.71h-0.722c0.355,0.477,0.566,1.067,0.566,1.71c0,1.571-1.27,2.847-2.835,2.847
			c-1.566,0-2.837-1.275-2.837-2.847c0-0.643,0.213-1.233,0.569-1.71h-0.722C11.734,12.951,11.568,13.534,11.568,14.157z"/>
		<path fill="#FFFFFF" d="M18.984,14.157c0,2.19-1.777,3.968-3.971,3.968c-2.194,0-3.971-1.777-3.971-3.968
			c0-0.612,0.139-1.192,0.387-1.71H6.708v8.549c0,1.275,1.034,2.311,2.312,2.311h11.96c1.276,0,2.312-1.033,2.312-2.311v-8.549
			h-4.694C18.848,12.965,18.984,13.545,18.984,14.157z"/>
		<path fill="#FFFFFF" d="M20.98,6.693H9.02c-1.277,0-2.312,1.035-2.312,2.312v2.78h5.122c0.723-0.97,1.88-1.597,3.184-1.597
			s2.46,0.627,3.185,1.597h5.094v-2.78C23.292,7.729,22.258,6.693,20.98,6.693z M8.08,11.177H7.45c0,0,0-1.119,0-2.186
			c0-1.067,0.63-1.345,0.63-1.345V11.177z M9.026,11.177H8.459v-3.53h0.567V11.177z M10.014,11.177h-0.61v-3.53h0.609L10.014,11.177
			L10.014,11.177z M10.938,11.177h-0.609v-3.53h0.609V11.177z M22.325,9.962c0,0.58-0.47,1.05-1.05,1.05h-1.514
			c-0.58,0-1.051-0.47-1.051-1.05V8.848c0-0.58,0.471-1.051,1.051-1.051h1.514c0.58,0,1.05,0.471,1.05,1.051V9.962z"/>
	</g>
</g>
</svg>
