<?xml version="1.0" encoding="utf-8"?>
<!-- Generator: Adobe Illustrator 16.0.0, SVG Export Plug-In . SVG Version: 6.00 Build 0)  -->
<!DOCTYPE svg PUBLIC "-//W3C//DTD SVG 1.1//EN" "http://www.w3.org/Graphics/SVG/1.1/DTD/svg11.dtd">
<svg version="1.1" id="Layer_1" xmlns="http://www.w3.org/2000/svg" xmlns:xlink="http://www.w3.org/1999/xlink" x="0px" y="0px"
	 width="30px" height="30px" viewBox="0 0 30 30" enable-background="new 0 0 30 30" xml:space="preserve">
<rect width="30" height="30"/>
<path id="RSS" fill="#FFFFFF" d="M9.91,20.084c0.451,0.45,0.725,1.062,0.727,1.743c-0.002,0.68-0.276,1.289-0.726,1.739H9.91
	c-0.451,0.447-1.066,0.723-1.75,0.723c-0.683,0-1.297-0.273-1.748-0.723c-0.449-0.45-0.725-1.061-0.725-1.739
	c0-0.681,0.276-1.293,0.725-1.743l0,0c0.451-0.448,1.064-0.727,1.748-0.727C8.844,19.357,9.458,19.636,9.91,20.084z M9.91,20.084
	L9.91,20.084L9.91,20.084L9.91,20.084z M6.413,23.566L6.413,23.566C6.412,23.566,6.412,23.566,6.413,23.566L6.413,23.566z
	 M5.69,12.021v3.557c2.321,0.001,4.517,0.913,6.161,2.561c1.643,1.639,2.551,3.838,2.555,6.168h0.001v0.008h3.571
	c-0.004-3.39-1.379-6.457-3.605-8.686C12.145,13.4,9.078,12.022,5.69,12.021z M5.696,5.688v3.555
	c8.299,0.005,15.046,6.764,15.051,15.069h3.565c-0.002-5.135-2.09-9.786-5.463-13.161C15.477,7.777,10.828,5.689,5.696,5.688z"/>
</svg>
