<?xml version="1.0" encoding="utf-8"?>
<!-- Generator: Adobe Illustrator 16.0.0, SVG Export Plug-In . SVG Version: 6.00 Build 0)  -->
<!DOCTYPE svg PUBLIC "-//W3C//DTD SVG 1.1//EN" "http://www.w3.org/Graphics/SVG/1.1/DTD/svg11.dtd">
<svg version="1.1" id="Layer_1" xmlns="http://www.w3.org/2000/svg" xmlns:xlink="http://www.w3.org/1999/xlink" x="0px" y="0px"
	 width="30px" height="30px" viewBox="0 0 30 30" enable-background="new 0 0 30 30" xml:space="preserve">
<rect width="30" height="30"/>
<path id="WordPress__x28_alt_x29_" fill="#FFFFFF" d="M7.024,10.5c1.512-3,4.543-4.617,8.039-4.617c2.263,0,4.33,0.987,5.917,2.347
	c-0.453-0.087-0.948,0.023-1.446,0.308c-1.168,0.67-1.552,2.572-0.035,3.524c0.944,0.591,1.28,2.073,1.25,2.976
	c-0.031,0.905-2.199,5.063-2.199,5.063l-2.108-7.245c0,0-0.073-0.508-0.073-0.655c0-0.185,0.062-0.358,0.175-0.488
	c0.079-0.086,0.199-0.214,0.341-0.214H17.5v-1h-5v1h0.113c0.178,0,0.353,0.188,0.521,0.359c0.199,0.205,0.448,0.951,0.751,1.751
	l0.791,2.592l-1.704,3.929l-1.87-7.872c0,0,0.055-0.489,0.168-0.581c0.074-0.062,0.187-0.179,0.318-0.179H11.5v-1L7.024,10.5
	L7.024,10.5z M8.09,12.01c0,0-0.44-0.51-0.907-0.51H6.709C6.252,12.5,6,13.809,6,15.047c0,3.729,2.287,6.926,5.544,8.289L8.09,12.01
	z M22.861,10.519c0.172,0.816,0.137,1.809-0.199,2.898c-0.877,2.836-3.045,7.94-3.887,9.885c3.154-1.407,5.35-4.551,5.35-8.204
	C24.125,13.426,23.663,11.861,22.861,10.519z M15.246,18.18l-2.317,5.66c0.685,0.164,1.398,0.252,2.134,0.252
	c0.762,0,1.5-0.094,2.207-0.27L15.246,18.18z"/>
</svg>
