<?xml version="1.0" encoding="utf-8"?>
<!-- Generator: Adobe Illustrator 16.0.0, SVG Export Plug-In . SVG Version: 6.00 Build 0)  -->
<!DOCTYPE svg PUBLIC "-//W3C//DTD SVG 1.1//EN" "http://www.w3.org/Graphics/SVG/1.1/DTD/svg11.dtd">
<svg version="1.1" id="Layer_1" xmlns="http://www.w3.org/2000/svg" xmlns:xlink="http://www.w3.org/1999/xlink" x="0px" y="0px"
	 width="30px" height="30px" viewBox="0 0 30 30" enable-background="new 0 0 30 30" xml:space="preserve">
<rect fill-rule="evenodd" clip-rule="evenodd" fill="#D0452A" width="30" height="30"/>
<defs>
	<filter id="Adobe_OpacityMaskFilter" filterUnits="userSpaceOnUse" x="17.771" y="2.372" width="12.69" height="12.691">
		<feColorMatrix  type="matrix" values="1 0 0 0 0  0 1 0 0 0  0 0 1 0 0  0 0 0 1 0"/>
	</filter>
</defs>
<mask maskUnits="userSpaceOnUse" x="17.771" y="2.372" width="12.69" height="12.691" id="SVGID_1_">
	<g filter="url(#Adobe_OpacityMaskFilter)">
		<path fill="#F5F5F5" d="M29.962,26.252c0,2.068-1.676,3.742-3.74,3.742H3.774c-2.066,0-3.741-1.674-3.741-3.742V3.807
			c0-2.065,1.675-3.741,3.741-3.741h22.448c2.064,0,3.74,1.676,3.74,3.741V26.252z"/>
	</g>
</mask>
<g mask="url(#SVGID_1_)">
	<g>
		<polygon fill="#FFFFFF" points="22.697,14.813 22.697,10.137 18.021,10.137 18.021,7.298 22.697,7.298 22.697,2.622 25.535,2.622 
			25.535,7.298 30.212,7.298 30.212,10.137 25.535,10.137 25.535,14.813 		"/>
		<path fill="#A5281A" d="M25.285,2.872v4.677h4.677v2.339h-4.677v4.676h-2.338V9.887h-4.676V7.548h4.676V2.872H25.285
			 M25.785,2.372h-0.5h-2.338h-0.5v0.5v4.177h-4.176h-0.5v0.5v2.339v0.5h0.5h4.176v4.176v0.5h0.5h2.338h0.5v-0.5v-4.176h4.177h0.5
			v-0.5V7.548v-0.5h-0.5h-4.177V2.872V2.372L25.785,2.372z"/>
	</g>
</g>
<g>
	<linearGradient id="SVGID_2_" gradientUnits="userSpaceOnUse" x1="6.6938" y1="2.6885" x2="6.6938" y2="37.3258">
		<stop  offset="0" style="stop-color:#FFFFFF"/>
		<stop  offset="1" style="stop-color:#F9DAD6"/>
	</linearGradient>
	<path fill="url(#SVGID_2_)" d="M6.454,37.045c-6.436,0-11.107-2.723-11.107-6.475c0-3.958,4.123-8.195,10.261-8.195
		c0.324,0,1.138-0.009,1.236-0.01c-0.595-0.619-1.106-1.321-1.106-2.398c0-0.546,0.128-1.116,0.38-1.7
		c-0.189,0.009-0.38,0.015-0.575,0.015c-4.653,0-7.902-3.253-7.902-7.912c0-4.376,4.523-8.215,9.68-8.215h10.72l-2.743,2.877h-1.961
		c1.465,1.185,2.319,3.172,2.319,5.482c0,2.093-1.069,4.034-3.091,5.614c-1.685,1.316-1.939,1.813-1.939,2.837
		c0,0.773,1.8,2.112,2.666,2.756l0.219,0.163c3.474,2.606,4.034,4.278,4.034,7.271C17.545,33.033,13.396,37.045,6.454,37.045z
		 M6.839,24.073c-3.885,0-7.167,2.453-7.167,5.356c0,3.039,2.969,5.42,6.76,5.42c4.885,0,7.467-1.819,7.467-5.262
		c0-0.341-0.042-0.689-0.123-1.036c-0.358-1.399-1.632-2.261-3.396-3.454c-0.304-0.205-0.619-0.419-0.943-0.645
		c-0.752-0.231-1.614-0.37-2.498-0.379L6.839,24.073z M5.673,4.302c-1.003,0-1.893,0.409-2.572,1.183
		C2.118,6.607,1.698,8.353,1.95,10.273c0.436,3.315,2.826,5.877,5.559,5.959l0.13,0.002c1.023,0,1.887-0.368,2.499-1.066
		c0.861-0.981,1.198-2.568,0.948-4.469c-0.469-3.57-2.748-6.319-5.3-6.395L5.673,4.302z"/>
	<path fill="#A5281A" d="M17.457,2.405l-2.266,2.377h-2.661c1.878,1.076,2.875,3.29,2.875,5.732c0,2.24-1.241,4.047-2.995,5.417
		c-1.711,1.337-2.036,1.896-2.036,3.034c0,0.969,2.044,2.414,2.985,3.119c3.272,2.455,3.934,4.002,3.934,7.07
		c0,3.832-4.127,7.641-10.841,7.641c-5.888,0-10.857-2.396-10.857-6.225c0-3.891,4.122-7.945,10.011-7.945
		c0.642,0,1.23-0.014,1.838-0.014c-0.806-0.785-1.458-1.461-1.458-2.645c0-0.703,0.225-1.375,0.539-1.977
		c-0.321,0.023-0.647,0.041-0.984,0.041c-4.836,0-7.652-3.399-7.652-7.662c0-4.172,4.285-7.965,9.43-7.965
		C9.971,2.405,17.457,2.405,17.457,2.405 M7.639,16.484c2.646,0,4.158-2.29,3.695-5.818c-0.472-3.588-2.809-6.531-5.541-6.612
		c-0.041-0.001-0.08-0.002-0.12-0.002c-2.665,0-4.436,2.718-3.971,6.254c0.472,3.586,3.068,6.094,5.8,6.176
		C7.548,16.483,7.594,16.484,7.639,16.484 M6.432,35.1c5.722,0,7.717-2.418,7.717-5.512c0-0.373-0.046-0.74-0.129-1.094
		c-0.448-1.752-2.23-2.709-4.44-4.246c-0.804-0.26-1.688-0.414-2.638-0.424c-0.035,0-0.069-0.001-0.104-0.001
		c-4.025,0.001-7.417,2.599-7.417,5.606C-0.578,32.523,2.363,35.1,6.432,35.1 M18.624,1.905h-1.167H7.321
		c-5.29,0-9.93,3.956-9.93,8.465c0,4.806,3.353,8.162,8.152,8.162c0.067,0,0.135-0.001,0.204-0.002
		c-0.172,0.49-0.259,0.972-0.259,1.438c0,0.922,0.353,1.596,0.805,2.154c-0.224,0.002-0.451,0.004-0.686,0.004
		c-6.287,0-10.511,4.367-10.511,8.445c0,3.896,4.776,6.725,11.357,6.725c7.099,0,11.341-4.139,11.341-8.141
		c0-3.43-0.889-5.035-4.134-7.471l-0.22-0.164c-0.702-0.521-2.565-1.906-2.565-2.555c0-0.889,0.151-1.317,1.844-2.641
		c2.084-1.628,3.187-3.637,3.187-5.81c0-2.12-0.7-3.979-1.924-5.232h1.209h0.214l0.148-0.155l2.266-2.377L18.624,1.905L18.624,1.905
		z M7.639,15.984l-0.123-0.002c-2.612-0.078-4.898-2.546-5.319-5.742C1.955,8.391,2.353,6.718,3.29,5.65
		c0.63-0.718,1.455-1.098,2.384-1.098l0.105,0.002c2.431,0.072,4.606,2.728,5.06,6.177c0.24,1.829-0.076,3.346-0.888,4.272
		C9.387,15.646,8.588,15.984,7.639,15.984L7.639,15.984z M6.432,34.6c-3.65,0-6.51-2.271-6.51-5.17c0-2.72,3.232-5.105,6.917-5.106
		l0.098,0.001c0.833,0.009,1.647,0.136,2.42,0.378c0.303,0.21,0.599,0.41,0.884,0.603c1.718,1.162,2.959,2.002,3.295,3.313
		c0.075,0.318,0.114,0.648,0.114,0.97C13.649,32.913,11.221,34.6,6.432,34.6L6.432,34.6z"/>
</g>
</svg>
