<?xml version="1.0" encoding="utf-8"?>
<!-- Generator: Adobe Illustrator 16.0.0, SVG Export Plug-In . SVG Version: 6.00 Build 0)  -->
<!DOCTYPE svg PUBLIC "-//W3C//DTD SVG 1.1//EN" "http://www.w3.org/Graphics/SVG/1.1/DTD/svg11.dtd">
<svg version="1.1" id="Layer_1" xmlns="http://www.w3.org/2000/svg" xmlns:xlink="http://www.w3.org/1999/xlink" x="0px" y="0px"
	 width="30px" height="30px" viewBox="0 0 30 30" enable-background="new 0 0 30 30" xml:space="preserve">
<g display="none">
	<path display="inline" fill="#BE2026" d="M18.51,14.605l-5.718-3.132c-0.208-0.116-0.485-0.132-0.716-0.043
		c-0.23,0.088-0.378,0.27-0.378,0.461v6.268c0,0.192,0.147,0.371,0.378,0.461c0.099,0.037,0.204,0.057,0.312,0.057
		c0.14,0,0.283-0.034,0.403-0.1l5.718-3.134c0.179-0.097,0.281-0.252,0.281-0.419C18.791,14.859,18.688,14.704,18.51,14.605z"/>
	<path display="inline" fill="#BE2026" d="M0,0v30h30V0H0z M23.654,11.96v6.128c0,1.475-1.262,2.676-2.812,2.676H9.262
		c-1.547,0-2.822-1.201-2.822-2.676V11.96c0-1.463,1.274-2.674,2.822-2.674h11.582C22.393,9.286,23.654,10.497,23.654,11.96z"/>
</g>
<rect fill-rule="evenodd" clip-rule="evenodd" fill="#BE2026" width="30" height="30"/>
<rect fill-rule="evenodd" clip-rule="evenodd" fill="#774840" width="30" height="30"/>
<g>
	<g>
		<path fill="#FFFFFF" d="M15.014,11.31c0.581,0,1.121,0.176,1.57,0.477h0.927c-0.628-0.66-1.515-1.072-2.497-1.072
			s-1.869,0.412-2.496,1.072h0.926C13.894,11.485,14.433,11.31,15.014,11.31z"/>
		<path fill="#FFFFFF" d="M11.568,14.157c0,1.9,1.543,3.441,3.445,3.441s3.445-1.541,3.445-3.441c0-0.623-0.166-1.206-0.455-1.71
			h-0.722c0.356,0.477,0.567,1.067,0.567,1.71c0,1.571-1.27,2.847-2.836,2.847s-2.837-1.275-2.837-2.847
			c0-0.643,0.213-1.233,0.569-1.71h-0.722C11.734,12.951,11.568,13.534,11.568,14.157z"/>
		<path fill="#FFFFFF" d="M18.984,14.157c0,2.19-1.777,3.968-3.971,3.968s-3.971-1.777-3.971-3.968c0-0.612,0.139-1.192,0.387-1.71
			H6.708v8.549c0,1.276,1.034,2.311,2.312,2.311H20.98c1.277,0,2.312-1.034,2.312-2.311v-8.549h-4.694
			C18.847,12.965,18.984,13.545,18.984,14.157z"/>
		<path fill="#FFFFFF" d="M20.98,6.693H9.02c-1.277,0-2.312,1.035-2.312,2.312v2.78h5.122c0.723-0.97,1.88-1.597,3.184-1.597
			s2.46,0.627,3.185,1.597h5.094v-2.78C23.292,7.729,22.258,6.693,20.98,6.693z M8.08,11.177H7.45c0,0,0-1.119,0-2.186
			s0.63-1.345,0.63-1.345V11.177z M9.026,11.177H8.459v-3.53h0.567V11.177z M10.014,11.177H9.404v-3.53h0.609V11.177z
			 M10.938,11.177h-0.609v-3.53h0.609V11.177z M22.325,9.962c0,0.58-0.47,1.05-1.05,1.05h-1.513c-0.58,0-1.051-0.47-1.051-1.05
			V8.848c0-0.58,0.471-1.051,1.051-1.051h1.513c0.58,0,1.05,0.471,1.05,1.051V9.962z"/>
	</g>
</g>
</svg>
