<?xml version="1.0" encoding="utf-8"?>
<!-- Generator: Adobe Illustrator 16.0.0, SVG Export Plug-In . SVG Version: 6.00 Build 0)  -->
<!DOCTYPE svg PUBLIC "-//W3C//DTD SVG 1.1//EN" "http://www.w3.org/Graphics/SVG/1.1/DTD/svg11.dtd">
<svg version="1.1" id="Layer_1" xmlns="http://www.w3.org/2000/svg" xmlns:xlink="http://www.w3.org/1999/xlink" x="0px" y="0px"
	 width="30px" height="30px" viewBox="0 0 30 30" enable-background="new 0 0 30 30" xml:space="preserve">
<g display="none">
	<path display="inline" fill="#BE2026" d="M18.51,14.605l-5.718-3.132c-0.208-0.116-0.485-0.132-0.716-0.043
		c-0.23,0.088-0.378,0.27-0.378,0.461v6.268c0,0.192,0.147,0.371,0.378,0.461c0.099,0.037,0.204,0.057,0.312,0.057
		c0.14,0,0.283-0.034,0.403-0.1l5.718-3.134c0.179-0.097,0.281-0.252,0.281-0.419C18.791,14.859,18.688,14.704,18.51,14.605z"/>
	<path display="inline" fill="#BE2026" d="M0,0v30h30V0H0z M23.654,11.96v6.128c0,1.475-1.262,2.676-2.812,2.676H9.262
		c-1.547,0-2.822-1.201-2.822-2.676V11.96c0-1.463,1.274-2.674,2.822-2.674h11.582C22.393,9.286,23.654,10.497,23.654,11.96z"/>
</g>
<rect fill-rule="evenodd" clip-rule="evenodd" fill="#BE2026" width="30" height="30"/>
<rect fill-rule="evenodd" clip-rule="evenodd" fill="#FE9A00" width="30" height="30"/>
<path id="RSS" fill="#FFFFFF" d="M9.91,20.084c0.451,0.45,0.725,1.062,0.727,1.743c-0.002,0.68-0.276,1.289-0.726,1.739H9.91
	c-0.451,0.448-1.066,0.723-1.75,0.723c-0.683,0-1.297-0.274-1.748-0.723c-0.449-0.45-0.725-1.06-0.725-1.739
	c0-0.681,0.276-1.293,0.725-1.743l0,0c0.451-0.448,1.064-0.726,1.748-0.726C8.844,19.358,9.458,19.636,9.91,20.084z M9.91,20.084
	L9.91,20.084C9.91,20.084,9.91,20.084,9.91,20.084L9.91,20.084z M6.413,23.566L6.413,23.566C6.412,23.566,6.412,23.566,6.413,23.566
	L6.413,23.566z M5.69,12.021v3.557c2.321,0.001,4.517,0.913,6.161,2.56c1.643,1.64,2.551,3.839,2.555,6.169h0.001v0.007h3.571
	c-0.003-3.389-1.379-6.457-3.605-8.685C12.145,13.4,9.078,12.022,5.69,12.021z M5.696,5.688v3.555
	c8.299,0.005,15.046,6.764,15.051,15.07h3.565c-0.002-5.135-2.089-9.786-5.462-13.161C15.477,7.777,10.828,5.689,5.696,5.688z"/>
</svg>
