<?xml version="1.0" encoding="utf-8"?>
<!-- Generator: Adobe Illustrator 16.0.0, SVG Export Plug-In . SVG Version: 6.00 Build 0)  -->
<!DOCTYPE svg PUBLIC "-//W3C//DTD SVG 1.1//EN" "http://www.w3.org/Graphics/SVG/1.1/DTD/svg11.dtd">
<svg version="1.1" id="Layer_1" xmlns="http://www.w3.org/2000/svg" xmlns:xlink="http://www.w3.org/1999/xlink" x="0px" y="0px"
	 width="30px" height="30px" viewBox="0 0 30 30" enable-background="new 0 0 30 30" xml:space="preserve">
<g display="none">
	<path display="inline" fill="#BE2026" d="M18.51,14.605l-5.718-3.132c-0.208-0.116-0.485-0.132-0.716-0.043
		c-0.23,0.088-0.378,0.27-0.378,0.461v6.268c0,0.192,0.147,0.371,0.378,0.461c0.099,0.037,0.204,0.057,0.312,0.057
		c0.14,0,0.283-0.034,0.403-0.1l5.718-3.134c0.179-0.097,0.281-0.252,0.281-0.419C18.791,14.859,18.688,14.704,18.51,14.605z"/>
	<path display="inline" fill="#BE2026" d="M0,0v30h30V0H0z M23.654,11.96v6.128c0,1.475-1.262,2.676-2.812,2.676H9.262
		c-1.547,0-2.822-1.201-2.822-2.676V11.96c0-1.463,1.274-2.674,2.822-2.674h11.582C22.393,9.286,23.654,10.497,23.654,11.96z"/>
</g>
<rect fill-rule="evenodd" clip-rule="evenodd" fill="#BE2026" width="30" height="30"/>
<rect fill-rule="evenodd" clip-rule="evenodd" fill="#257BA1" width="30" height="30"/>
<path id="WordPress__x28_alt_x29_" fill-rule="evenodd" clip-rule="evenodd" fill="#FFFFFF" d="M7.024,10.5
	c1.512-3,4.543-4.617,8.039-4.617c2.263,0,4.33,0.987,5.918,2.347c-0.453-0.087-0.949,0.023-1.447,0.308
	c-1.168,0.67-1.551,2.572-0.035,3.524c0.945,0.591,1.281,2.073,1.25,2.976c-0.031,0.905-2.199,5.064-2.199,5.064l-2.109-7.245
	c0,0-0.073-0.508-0.073-0.655c0-0.185,0.062-0.358,0.175-0.488c0.079-0.086,0.199-0.214,0.341-0.214H17.5v-1h-5v1h0.113
	c0.178,0,0.353,0.188,0.521,0.359c0.199,0.205,0.448,0.951,0.751,1.751l0.791,2.592l-1.704,3.929l-1.87-7.872
	c0,0,0.055-0.489,0.168-0.581c0.074-0.062,0.187-0.179,0.318-0.179H11.5v-1H7.024z M8.09,12.01c0,0-0.44-0.51-0.907-0.51H6.709
	C6.252,12.5,6,13.809,6,15.047c0,3.729,2.287,6.926,5.544,8.289L8.09,12.01z M22.861,10.519c0.172,0.816,0.137,1.809-0.199,2.898
	c-0.877,2.836-3.045,7.94-3.886,9.885c3.153-1.408,5.349-4.551,5.349-8.204C24.125,13.426,23.663,11.861,22.861,10.519z
	 M15.246,18.18l-2.317,5.66c0.685,0.164,1.398,0.252,2.134,0.252c0.762,0,1.5-0.094,2.207-0.27L15.246,18.18z"/>
</svg>
