<?xml version="1.0" encoding="utf-8"?>
<!-- Generator: Adobe Illustrator 16.0.0, SVG Export Plug-In . SVG Version: 6.00 Build 0)  -->
<!DOCTYPE svg PUBLIC "-//W3C//DTD SVG 1.1//EN" "http://www.w3.org/Graphics/SVG/1.1/DTD/svg11.dtd">
<svg version="1.1" id="Layer_1" xmlns="http://www.w3.org/2000/svg" xmlns:xlink="http://www.w3.org/1999/xlink" x="0px" y="0px"
	 width="30px" height="30px" viewBox="0 0 30 30" enable-background="new 0 0 30 30" xml:space="preserve">
<g display="none">
	<path display="inline" fill="#BE2026" d="M18.51,14.605l-5.718-3.132c-0.208-0.116-0.485-0.132-0.716-0.043
		c-0.23,0.088-0.378,0.27-0.378,0.461v6.268c0,0.192,0.147,0.371,0.378,0.461c0.099,0.037,0.204,0.057,0.312,0.057
		c0.14,0,0.283-0.034,0.403-0.1l5.718-3.134c0.179-0.097,0.281-0.252,0.281-0.419C18.791,14.859,18.688,14.704,18.51,14.605z"/>
	<path display="inline" fill="#BE2026" d="M0,0v30h30V0H0z M23.654,11.96v6.128c0,1.475-1.262,2.676-2.812,2.676H9.262
		c-1.547,0-2.822-1.201-2.822-2.676V11.96c0-1.463,1.274-2.674,2.822-2.674h11.582C22.393,9.286,23.654,10.497,23.654,11.96z"/>
</g>
<rect fill-rule="evenodd" clip-rule="evenodd" fill="#BE2026" width="30" height="30"/>
<rect display="none" fill-rule="evenodd" clip-rule="evenodd" fill="#257BA1" width="30" height="30"/>
<path id="YouTube__x28_alt_x29_" fill-rule="evenodd" clip-rule="evenodd" fill="#FFFFFF" d="M-31.5-3.444
	c0-1.5-1.34-3.056-2.838-3.056h-13.324c-1.498,0-2.838,1.556-2.838,3.056V3.91c0,1.5,1.34,2.59,2.838,2.59h13.324
	c1.498,0,2.838-1.09,2.838-2.59V-3.444z M-42.5,3.11v-7.102l5.385,3.551L-42.5,3.11z"/>
<path id="YouTube" fill="#FFFFFF" d="M21.357,20.105h-1.211l0.007-0.703c0-0.312,0.255-0.568,0.57-0.568h0.078
	c0.313,0,0.57,0.256,0.57,0.568L21.357,20.105z M16.817,18.6c-0.308,0-0.559,0.205-0.559,0.459v3.42
	c0,0.252,0.251,0.457,0.559,0.457s0.56-0.205,0.56-0.457v-3.42C17.377,18.805,17.125,18.6,16.817,18.6z M24.191,16.686v6.506
	c0,1.562-1.354,2.838-3.008,2.838H8.816c-1.655,0-3.008-1.275-3.008-2.838v-6.506c0-1.56,1.353-2.837,3.008-2.837h12.367
	C22.838,13.848,24.191,15.125,24.191,16.686z M9.641,23.898L9.64,17.045h1.534v-1.016l-4.086-0.006v0.998l1.276,0.004v6.873H9.641z
	 M14.236,18.066h-1.277v3.66c0,0.529,0.032,0.793-0.002,0.887c-0.104,0.285-0.571,0.584-0.753,0.031
	c-0.031-0.098-0.004-0.391-0.004-0.895l-0.006-3.684h-1.271l0.003,3.627c0.001,0.555-0.012,0.971,0.005,1.16
	c0.031,0.33,0.02,0.719,0.328,0.939c0.575,0.416,1.677-0.061,1.953-0.652l-0.003,0.754l1.026,0.002V18.066z M18.325,22.258
	l-0.002-3.047c-0.001-1.162-0.869-1.855-2.048-0.916l0.004-2.266l-1.277,0.002l-0.005,7.816l1.05-0.016l0.095-0.486
	C17.485,24.576,18.328,23.732,18.325,22.258z M22.326,21.854l-0.958,0.004c-0.002,0.039-0.002,0.082-0.003,0.131v0.533
	c0,0.287-0.236,0.52-0.523,0.52h-0.188c-0.288,0-0.523-0.232-0.523-0.52v-0.059v-0.588v-0.758h2.193v-0.826
	c0-0.605-0.016-1.209-0.064-1.553c-0.157-1.092-1.689-1.266-2.464-0.707c-0.242,0.174-0.428,0.408-0.536,0.723
	c-0.11,0.312-0.163,0.742-0.163,1.287v1.816C19.097,24.877,22.764,24.449,22.326,21.854z M17.41,11.994
	c0.065,0.159,0.169,0.29,0.307,0.388c0.139,0.096,0.313,0.145,0.524,0.145c0.183,0,0.346-0.049,0.488-0.153
	c0.143-0.102,0.263-0.255,0.358-0.458l-0.022,0.501h1.424v-6.06h-1.121v4.716c0,0.255-0.211,0.464-0.469,0.464
	c-0.255,0-0.466-0.209-0.466-0.464V6.357h-1.172v4.087c0,0.521,0.01,0.868,0.025,1.043C17.303,11.663,17.345,11.831,17.41,11.994z
	 M13.092,8.572c0-0.583,0.049-1.036,0.145-1.364c0.098-0.327,0.271-0.589,0.524-0.786c0.251-0.199,0.574-0.298,0.966-0.298
	c0.33,0,0.612,0.064,0.848,0.191c0.238,0.127,0.42,0.293,0.547,0.497c0.131,0.205,0.218,0.416,0.264,0.63
	c0.048,0.218,0.071,0.548,0.071,0.992v1.533c0,0.562-0.022,0.975-0.065,1.238c-0.043,0.263-0.137,0.507-0.28,0.736
	c-0.144,0.227-0.326,0.396-0.549,0.504c-0.225,0.109-0.482,0.162-0.773,0.162c-0.325,0-0.598-0.045-0.824-0.139
	c-0.226-0.093-0.401-0.233-0.525-0.419c-0.126-0.187-0.215-0.415-0.268-0.68c-0.054-0.265-0.079-0.664-0.079-1.194V8.572z
	 M14.208,10.979c0,0.343,0.256,0.622,0.567,0.622c0.311,0,0.565-0.279,0.565-0.622V7.753c0-0.344-0.254-0.624-0.565-0.624
	c-0.312,0-0.567,0.28-0.567,0.624V10.979z M10.265,12.607h1.345l0.001-4.647l1.587-3.98h-1.469l-0.845,2.958L10.028,3.97H8.573
	l1.69,3.992L10.265,12.607z"/>
</svg>
